<svg width="40" height="40" viewBox="0 0 40 40" fill="none" xmlns="http://www.w3.org/2000/svg">
  <path d="M3.17949 10.2887L20 0.57735L36.8205 10.2887V29.7113L20 39.4226L3.17949 29.7113V10.2887Z" fill="#FFCC01" stroke="black"/>
  <mask id="mask0_6_71" style="mask-type:alpha" maskUnits="userSpaceOnUse" x="5" y="0" width="30" height="28">
    <path d="M5.03464 26.2958C5.10322 26.5396 5.25026 26.7536 5.45265 26.904C5.65504 27.0544 5.90129 27.1328 6.15267 27.1267H18.5359C18.771 27.1317 19.0016 27.0618 19.195 26.927C19.3884 26.7923 19.5348 26.5994 19.6132 26.376C19.6595 26.2375 19.6783 26.0912 19.6684 25.9453C19.6586 25.7995 19.6202 25.6571 19.5556 25.5262C19.4911 25.3953 19.4015 25.2786 19.2921 25.1827C19.1826 25.0868 19.0555 25.0136 18.918 24.9673C18.8038 24.9295 18.6844 24.9096 18.5642 24.9084H13.8002C13.3879 23.6465 12.8975 22.4119 12.3319 21.2119C12.3319 21.2119 6.43925 21.2119 5.78648 24.9566C5.51365 25.0384 5.28291 25.2237 5.14271 25.4734C5.00252 25.7231 4.96378 26.0179 5.03464 26.2958Z" fill="black"/>
    <path d="M12.6291 20.5903C12.6012 20.6188 12.5835 20.6559 12.579 20.6956C12.5745 20.7354 12.5834 20.7756 12.6044 20.8096C13.2258 21.9784 13.7352 23.2043 14.1257 24.4705H19.0224C19.0792 24.4701 19.1336 24.4473 19.1739 24.4069C19.2142 24.3666 19.2373 24.312 19.2382 24.2548C19.2789 16.2714 19.3797 8.88363 19.355 0.823593L12.7211 4.73236C14.9713 15.7757 15.8877 17.6712 12.6291 20.5903Z" fill="black"/>
    <path d="M25.7553 16.389C26.3727 12.334 27.1458 8.44842 27.9383 4.63595L21.1098 0.753937C21.1098 6.07856 21.0125 11.0965 21.0161 16.4104C21.0501 16.405 21.0847 16.405 21.1187 16.4104L25.6067 16.3712C25.6569 16.3655 25.7078 16.3716 25.7553 16.389Z" fill="black"/>
    <path d="M31.5293 27.1283H28.3451C28.293 27.1363 28.2397 27.1264 28.1938 27.1002C28.1479 27.074 28.1121 27.0331 28.0921 26.9839C28.0419 26.8779 27.9828 26.7765 27.9152 26.6808C27.8851 26.6344 27.8055 26.5863 27.7666 26.6166C27.381 26.9197 26.921 27.1373 26.4982 26.8805C25.9551 26.5435 25.7021 26.5238 25.6986 26.7664V26.9964C25.6998 27.012 25.6979 27.0277 25.693 27.0425C25.6881 27.0574 25.6804 27.0711 25.6702 27.0829C25.6599 27.0947 25.6475 27.1043 25.6335 27.1112C25.6196 27.1181 25.6044 27.1221 25.5889 27.123H20.5295C20.4721 27.1226 20.4171 27.0996 20.3761 27.059C20.3352 27.0184 20.3115 26.9633 20.3101 26.9054V26.3384C20.3024 25.618 20.382 24.8994 20.5472 24.1986C20.6693 23.6779 20.7842 23.1572 20.901 22.6383C20.9276 22.4971 20.9418 22.3539 20.9435 22.2103V17.1032C20.9435 17.0559 20.9621 17.0106 20.9953 16.9771C21.0285 16.9437 21.0734 16.9249 21.1204 16.9249L25.6137 16.9035C25.6662 16.9035 25.7166 16.9246 25.7538 16.962C25.791 16.9995 25.8118 17.0503 25.8118 17.1032C25.8134 18.2833 26.033 19.4528 26.4593 20.5519C26.5932 20.9082 26.813 21.2253 27.0991 21.4744C27.3851 21.7235 27.7282 21.8967 28.0974 21.9785C28.4938 22.0811 28.9018 22.1308 29.311 22.1265C29.8417 22.1265 30.3848 22.1265 30.9226 22.1532C31.6883 22.197 32.4396 22.382 33.1391 22.6989C33.3796 22.7985 33.6115 22.9178 33.8326 23.0555C34.1895 23.3258 34.4566 23.6989 34.5986 24.1254C34.888 24.8555 35.0235 25.6383 34.9966 26.424C34.9929 26.5803 34.9757 26.736 34.9453 26.8894C34.9224 26.9644 34.8871 27.0349 34.841 27.098H34.7472L31.5293 27.1283ZM25.0777 19.5462C25.0743 19.6301 25.1041 19.7119 25.1605 19.7738C25.2168 19.8356 25.2952 19.8724 25.3784 19.8761H25.3961C25.4391 19.8775 25.482 19.8703 25.5223 19.8549C25.5626 19.8395 25.5994 19.8162 25.6307 19.7864C25.6619 19.7565 25.687 19.7207 25.7044 19.681C25.7219 19.6413 25.7313 19.5985 25.7322 19.5551V19.5426C25.7325 19.4983 25.724 19.4544 25.7072 19.4134C25.6905 19.3724 25.6659 19.3351 25.6348 19.3038C25.6037 19.2725 25.5668 19.2476 25.5261 19.2308C25.4854 19.2139 25.4418 19.2054 25.3979 19.2056C25.3115 19.2056 25.2288 19.2402 25.1677 19.3017C25.1067 19.3632 25.0724 19.4467 25.0724 19.5337L25.0777 19.5462ZM26.0595 21.9892C26.0578 22.0559 26.0757 22.1216 26.1111 22.178C26.1464 22.2344 26.1976 22.279 26.2581 22.3061C26.3186 22.3331 26.3857 22.3415 26.4509 22.3301C26.5161 22.3187 26.5765 22.288 26.6244 22.242C26.6723 22.1959 26.7056 22.1366 26.72 22.0714C26.7345 22.0063 26.7294 21.9384 26.7054 21.8761C26.6815 21.8139 26.6398 21.7603 26.5856 21.722C26.5314 21.6837 26.4671 21.6625 26.4009 21.6611H26.3885C26.3036 21.6596 26.2214 21.6919 26.1599 21.751C26.0983 21.81 26.0623 21.8911 26.0595 21.9767V21.9892ZM25.7216 21.0976C25.7632 21.0993 25.8047 21.0926 25.8438 21.0781C25.8828 21.0636 25.9187 21.0415 25.9492 21.013C25.9798 20.9845 26.0045 20.9502 26.0219 20.9121C26.0393 20.874 26.0491 20.8328 26.0506 20.7909V20.7677C26.0445 20.6837 26.0071 20.6051 25.9459 20.5478C25.8847 20.4905 25.8043 20.4586 25.7207 20.4586C25.6372 20.4586 25.5567 20.4905 25.4955 20.5478C25.4343 20.6051 25.3969 20.6837 25.3908 20.7677C25.3874 20.8525 25.4176 20.9353 25.4746 20.9978C25.5316 21.0603 25.6109 21.0974 25.6951 21.1012L25.7216 21.0976Z" fill="black"/>
  </mask>
  <g mask="url(#mask0_6_71)">
    <path d="M20.6932 -1L38.0137 9V29L20.6932 39L3.37273 29V9L20.6932 -1Z" fill="black"/>
  </g>
</svg>
