<svg width="188" height="41" viewBox="0 0 188 41" fill="none" xmlns="http://www.w3.org/2000/svg">
  <path d="M3.21302 10.4137L20.25 0.57735L37.287 10.4137V30.0863L20.25 39.9226L3.21302 30.0863V10.4137Z" fill="#FFD530" stroke="black"/>
  <mask id="mask0_1_1999" style="mask-type:alpha" maskUnits="userSpaceOnUse" x="2" y="0" width="38" height="40">
    <mask id="mask1_1_1999" style="mask-type:alpha" maskUnits="userSpaceOnUse" x="2" y="0" width="38" height="40">
      <path d="M21 40L2 28.6589V11.3474L21 0L39.9305 11.2947L40 28.6526L21 40Z" fill="#FFCA00"/>
    </mask>
    <g mask="url(#mask1_1_1999)">
      <path d="M32.2135 20.6247L35.5048 18.7832L34.9463 15.2117C35.5357 14.6139 36.0502 13.9551 36.4857 13.2525L40.0153 13.0483L41.0702 9.36473L38.2078 7.24208C38.2118 6.41 38.1256 5.57014 37.9454 4.74231L40.2986 2.04343L38.4994 -1.32527L35.0094 -0.754748C34.4259 -1.35694 33.7827 -1.88514 33.0952 -2.33034L32.8957 -5.94296L29.2968 -7.02265L27.2225 -4.0913C26.4095 -4.09536 25.5894 -4.00879 24.7801 -3.82268L22.1443 -6.23184L18.853 -4.39031L19.4114 -0.818799C18.8215 -0.222028 18.3076 0.437809 17.872 1.14042L14.3424 1.34457L13.2865 5.02872L16.15 7.1508C16.146 7.98288 16.2322 8.82274 16.4124 9.65057L14.0592 12.3495L15.8584 15.7181L19.3484 15.1476C19.9325 15.7509 20.5761 16.2775 21.2626 16.7232L21.462 20.3358L25.062 21.415L27.1353 18.4842C27.9483 18.4882 28.7678 18.4006 29.5776 18.2156L32.2135 20.6247ZM23.1055 9.47556C21.8758 7.17313 22.7026 4.28591 24.9521 3.02727C27.2017 1.76862 30.0225 2.61489 31.2523 4.91732C32.482 7.21975 31.6552 10.107 29.4056 11.3656C27.1561 12.6243 24.3352 11.778 23.1055 9.47556Z" fill="black"/>
      <path d="M16.2437 31.7979L18.0722 30.2879L17.3397 28.1502C17.638 27.7146 17.8835 27.2499 18.0755 26.7672L20.2289 26.2394L20.4786 23.8488L18.4835 22.8665C18.3955 22.3532 18.2511 21.8453 18.05 21.3556L19.2071 19.4241L17.7319 17.5526L15.6427 18.3017C15.2176 17.997 14.7637 17.7447 14.2916 17.5486L13.7759 15.3446L11.4402 15.089L10.4804 17.132C9.97885 17.2221 9.48277 17.3689 9.0042 17.5758L7.11762 16.391L5.28918 17.9009L6.02166 20.0387C5.72292 20.4737 5.47788 20.939 5.28582 21.4216L3.13247 21.9495L2.88217 24.3405L4.87782 25.3224C4.96583 25.8357 5.11025 26.3436 5.31135 26.8333L4.15429 28.7648L5.6295 30.6363L7.71861 29.8871C8.1442 30.1924 8.59818 30.4437 9.06976 30.6403L9.58545 32.8443L11.9217 33.0994L12.881 31.0568C13.3825 30.9668 13.8781 30.8194 14.3572 30.6131L16.2437 31.7979ZM9.41775 25.9631C8.40948 24.684 8.60522 22.8103 9.85492 21.7783C11.1046 20.7463 12.9353 20.9466 13.9436 22.2257C14.9519 23.5048 14.7561 25.3786 13.5064 26.4106C12.2567 27.4426 10.426 27.2422 9.41775 25.9631Z" fill="black"/>
      <path d="M24.8963 42.8931L26.7042 42.2066L26.6792 40.3473C27.0224 40.088 27.3319 39.792 27.6045 39.4677L29.4147 39.6321L30.2186 37.8385L28.9165 36.5412C28.9789 36.1182 28.996 35.6845 28.9644 35.2496L30.3573 34.0556L29.6865 32.2053L27.8698 32.2302C27.6166 31.8795 27.3278 31.562 27.0104 31.2832L27.171 29.4304L25.4186 28.6076L24.1508 29.9411C23.7375 29.8772 23.3141 29.8589 22.8889 29.8921L21.7229 28.4662L19.915 29.1528L19.9399 31.012C19.5966 31.2708 19.2873 31.5673 19.0147 31.8916L17.2045 31.7272L16.4 33.521L17.7026 34.8182C17.6402 35.2411 17.6231 35.6749 17.6548 36.1097L16.2619 37.3037L16.9327 39.1541L18.7494 39.1291C19.0027 39.4804 19.292 39.7972 19.6088 40.0761L19.4482 41.929L21.2011 42.7515L22.4684 41.4183C22.8817 41.4821 23.3049 41.4999 23.7303 41.4673L24.8963 42.8931ZM21.0722 36.5294C20.6137 35.2647 21.2438 33.8589 22.4794 33.3896C23.715 32.9203 25.0885 33.5652 25.547 34.8299C26.0055 36.0946 25.3754 37.5005 24.1398 37.9697C22.9042 38.439 21.5306 37.7941 21.0722 36.5294Z" fill="black"/>
    </g>
  </mask>
  <g mask="url(#mask0_1_1999)">
    <path d="M19.5142 -1.05263L37.3273 9.47369V30.5263L19.5142 41.0526L1.70102 30.5263V9.47369L19.5142 -1.05263Z" fill="black"/>
  </g>
  <path d="M49.36 22H52.7V16.7H56.12C59.04 16.7 60.92 15.2 60.92 12.2C60.92 9.2 59.04 7.7 56.12 7.7H49.36V22ZM55.42 13.96H52.7V10.46H55.42C56.72 10.46 57.5 10.92 57.5 12.2C57.5 13.48 56.72 13.96 55.42 13.96Z" fill="#221F20"/>
  <path d="M62.778 22H65.958V12.7H65.998L68.878 22H71.278L74.158 12.7H74.198V22H77.378V7.7H73.258L70.098 17.2H70.058L66.898 7.7H62.778V22Z" fill="#221F20"/>
  <path d="M86.2222 22.32C90.1022 22.32 92.2622 19.94 92.5822 16.66H89.1622C88.9422 18.3 88.2422 19.56 86.1622 19.56C83.6422 19.56 82.8422 17.56 82.8422 14.84C82.8422 12.14 83.6422 10.14 86.1622 10.14C88.2222 10.14 88.9022 11.4 89.1622 12.94H92.5822C92.2422 9.7 90.1422 7.38 86.3022 7.38C81.8622 7.38 79.4022 10.52 79.4022 14.9C79.4022 19.16 81.7622 22.32 86.2222 22.32Z" fill="#221F20"/>
  <path d="M99.8576 22.32C103.618 22.32 105.778 20.52 105.778 17.76C105.778 15.28 104.138 14.1 101.558 13.58L99.3176 13.12C98.0176 12.86 97.3776 12.32 97.3776 11.5C97.3776 10.6 98.1576 10.1 99.4776 10.1C101.038 10.1 101.838 10.82 101.958 12.02H105.358C105.238 9.12 103.018 7.38 99.4776 7.38C96.3576 7.38 93.9576 8.74 93.9576 11.68C93.9576 13.96 95.5976 15.36 98.2776 15.9L100.518 16.36C101.698 16.6 102.358 17.12 102.358 18.02C102.358 19 101.538 19.6 99.8176 19.6C98.1376 19.6 97.0976 18.96 97.0776 17.3H93.6776C93.6976 20.54 96.1776 22.32 99.8576 22.32Z" fill="#221F20"/>
  <path d="M53.46 33H55.24L52.51 25.85H50.82L48.11 33H49.83L50.32 31.57H52.98L53.46 33ZM51.65 27.69H51.67L52.54 30.28H50.76L51.65 27.69Z" fill="#616161"/>
  <path d="M57.7035 30.45H58.8035L60.0935 33H61.9535L60.5035 30.26C61.3635 29.94 61.8535 29.21 61.8535 28.15C61.8535 26.68 60.9135 25.85 59.3335 25.85H56.0335V33H57.7035V30.45ZM59.0035 29.08H57.7035V27.23H59.0035C59.7935 27.23 60.1835 27.51 60.1835 28.15C60.1835 28.79 59.7935 29.08 59.0035 29.08Z" fill="#616161"/>
  <path d="M62.889 33H64.479V28.35H64.499L65.939 33H67.139L68.579 28.35H68.599V33H70.189V25.85H68.129L66.549 30.6H66.529L64.949 25.85H62.889V33Z" fill="#616161"/>
  <path d="M73.3911 33H75.0611V30.32L77.5011 25.85H75.6311L74.2311 28.58H74.2111L72.8311 25.85H70.9211L73.3911 30.32V33Z" fill="#616161"/>
  <path d="M82.9034 33.16C84.7834 33.16 85.8634 32.26 85.8634 30.88C85.8634 29.64 85.0434 29.05 83.7534 28.79L82.6334 28.56C81.9834 28.43 81.6634 28.16 81.6634 27.75C81.6634 27.3 82.0534 27.05 82.7134 27.05C83.4934 27.05 83.8934 27.41 83.9534 28.01H85.6534C85.5934 26.56 84.4834 25.69 82.7134 25.69C81.1534 25.69 79.9534 26.37 79.9534 27.84C79.9534 28.98 80.7734 29.68 82.1134 29.95L83.2334 30.18C83.8234 30.3 84.1534 30.56 84.1534 31.01C84.1534 31.5 83.7434 31.8 82.8834 31.8C82.0434 31.8 81.5234 31.48 81.5134 30.65H79.8134C79.8234 32.27 81.0634 33.16 82.9034 33.16Z" fill="#616161"/>
  <path d="M90.0143 33.16C92.2343 33.16 93.5443 31.58 93.5443 29.42C93.5443 27.27 92.2343 25.69 90.0143 25.69C87.7643 25.69 86.4743 27.27 86.4743 29.42C86.4743 31.58 87.7643 33.16 90.0143 33.16ZM90.0143 31.78C88.6343 31.78 88.1943 30.71 88.1943 29.42C88.1943 28.14 88.6343 27.07 90.0143 27.07C91.3843 27.07 91.8343 28.14 91.8343 29.42C91.8343 30.71 91.3843 31.78 90.0143 31.78Z" fill="#616161"/>
  <path d="M94.5491 33H96.2191V30.28H99.1391V28.9H96.2191V27.23H99.7991V25.85H94.5491V33Z" fill="#616161"/>
  <path d="M102.273 33H103.943V27.23H106.053V25.85H100.143V27.23H102.273V33Z" fill="#616161"/>
  <path d="M108.173 33H109.863L111.013 28.31H111.033L112.183 33H113.873L115.683 25.85H114.003L112.953 30.54H112.933L111.823 25.85H110.223L109.113 30.54H109.093L108.043 25.85H106.363L108.173 33Z" fill="#616161"/>
  <path d="M120.384 33H122.164L119.434 25.85H117.744L115.034 33H116.754L117.244 31.57H119.904L120.384 33ZM118.574 27.69H118.594L119.464 30.28H117.684L118.574 27.69Z" fill="#616161"/>
  <path d="M124.627 30.45H125.727L127.017 33H128.877L127.427 30.26C128.287 29.94 128.777 29.21 128.777 28.15C128.777 26.68 127.837 25.85 126.257 25.85H122.957V33H124.627V30.45ZM125.927 29.08H124.627V27.23H125.927C126.717 27.23 127.107 27.51 127.107 28.15C127.107 28.79 126.717 29.08 125.927 29.08Z" fill="#616161"/>
  <path d="M129.813 33H135.233V31.62H131.483V30.01H134.663V28.63H131.483V27.23H135.163V25.85H129.813V33Z" fill="#616161"/>
  <path d="M138.192 33H139.862V30.28H142.782V28.9H139.862V27.23H143.442V25.85H138.192V33Z" fill="#616161"/>
  <path d="M148.226 33H150.006L147.276 25.85H145.586L142.876 33H144.596L145.086 31.57H147.746L148.226 33ZM146.416 27.69H146.436L147.306 30.28H145.526L146.416 27.69Z" fill="#616161"/>
  <path d="M153.508 33.16C155.448 33.16 156.528 31.97 156.688 30.33H154.978C154.868 31.15 154.518 31.78 153.478 31.78C152.218 31.78 151.818 30.78 151.818 29.42C151.818 28.07 152.218 27.07 153.478 27.07C154.508 27.07 154.848 27.7 154.978 28.47H156.688C156.518 26.85 155.468 25.69 153.548 25.69C151.328 25.69 150.098 27.26 150.098 29.45C150.098 31.58 151.278 33.16 153.508 33.16Z" fill="#616161"/>
  <path d="M159.245 33H160.915V27.23H163.025V25.85H157.115V27.23H159.245V33Z" fill="#616161"/>
  <path d="M167.055 33.16C169.275 33.16 170.585 31.58 170.585 29.42C170.585 27.27 169.275 25.69 167.055 25.69C164.805 25.69 163.515 27.27 163.515 29.42C163.515 31.58 164.805 33.16 167.055 33.16ZM167.055 31.78C165.675 31.78 165.235 30.71 165.235 29.42C165.235 28.14 165.675 27.07 167.055 27.07C168.425 27.07 168.875 28.14 168.875 29.42C168.875 30.71 168.425 31.78 167.055 31.78Z" fill="#616161"/>
  <path d="M173.26 30.45H174.36L175.65 33H177.51L176.06 30.26C176.92 29.94 177.41 29.21 177.41 28.15C177.41 26.68 176.47 25.85 174.89 25.85H171.59V33H173.26V30.45ZM174.56 29.08H173.26V27.23H174.56C175.35 27.23 175.74 27.51 175.74 28.15C175.74 28.79 175.35 29.08 174.56 29.08Z" fill="#616161"/>
  <path d="M180.139 33H181.809V30.32L184.249 25.85H182.379L180.979 28.58H180.959L179.579 25.85H177.669L180.139 30.32V33Z" fill="#616161"/>
</svg>
