<svg width="227" height="117" viewBox="0 0 227 117" fill="none" xmlns="http://www.w3.org/2000/svg">
  <g clip-path="url(#clip0_1_2247)">
    <path d="M49.3 28.5498L48.21 29.6398L49.46 30.3598L49.3 28.5498Z" fill="#221F20"/>
    <path d="M41.87 26H42V25.3L48.5 18.81L48.31 16.74L42 23.06V22.06L48.24 15.83L48 13.8L42 19.86V18.86L48 12.86L47.82 10.79L42 16.65V15.65L47.67 10L47.49 8L42 13.44V12.56L47.47 7.09L47.23 5L42 10.31V9.31L47.21 4.1L47 2L42 7L41.92 6.12L45.11 2.9C46.21 2.6 46.93 2.15 46.93 1.65C46.93 0.74 44.66 0 41.87 0C39.08 0 36.81 0.74 36.81 1.65L34.28 30.36L39.49 27.36L41.87 26Z" fill="#221F20"/>
    <path d="M45.62 28.1397L48.97 24.7897L48.79 22.6797L44.16 27.2897L44.25 27.3397L45.62 28.1397Z" fill="#221F20"/>
    <path d="M49.22 27.6599L49.05 25.6299L46.21 28.4799L47.6 29.2799L49.22 27.6599Z" fill="#221F20"/>
    <path d="M48.7 21.7702L48.52 19.7002L42.12 26.1102L43.54 26.9302L48.7 21.7702Z" fill="#221F20"/>
    <path d="M73.33 43.58L72.95 43.96L73.39 44.21L73.33 43.58Z" fill="#221F20"/>
    <path d="M73.2699 42.9299L73.1399 41.3799L71.4399 43.0899L72.4999 43.6999L73.2699 42.9299Z" fill="#221F20"/>
    <path d="M72.8899 38.5198L72.7499 37.0098L68.4399 41.3498L69.4699 41.9398L72.8899 38.5198Z" fill="#221F20"/>
    <path d="M73.08 40.7197L72.94 39.1797L69.92 42.2097L70.98 42.8197L73.08 40.7197Z" fill="#221F20"/>
    <path d="M72.7 36.3802L72.56 34.8102L67.46 39.8802V39.1602L72.46 34.1602L72.32 32.6202L67.42 37.5302V36.8102L72.27 31.9602L72.13 30.4202L67.42 35.1302V34.4102L72.07 29.7602L72 28.1802L67.46 32.7002V32.0002L71.92 27.5402L71.78 26.0002L67.46 30.3002V29.5902L71.73 25.3202L71.59 23.8002L67.46 27.9102V27.2502L71.54 23.1702L71.4 21.6002L67.46 25.6002V24.8902L71.34 21.0002L71.2 19.4102L67.46 23.1502L67.4 22.4902L69.82 20.0802C70.64 19.8502 71.17 19.5202 71.17 19.1402C71.17 18.4602 69.48 17.9102 67.4 17.9102C65.32 17.9102 63.63 18.4602 63.63 19.1402L62 37.6202L68 41.0902L72.7 36.3802Z" fill="#221F20"/>
    <path d="M21.64 36.3799L21.5 34.8099L16.4 39.8799V39.1599L21.4 34.1599L21.27 32.6199L16.4 37.4899V36.7699L21.25 31.9199L21.11 30.3799L16.4 35.0899V34.3699L21.06 29.7199L20.92 28.1799L16.4 32.6999V31.9999L20.86 27.5399L20.73 25.9999L16.4 30.2999V29.5899L20.67 25.3199L20.54 23.7999L16.4 27.9099V27.2499L20.48 23.1699L20.34 21.5999L16.4 25.5999V24.8899L20.29 20.9999L20.15 19.4099L16.4 23.1199L16.34 22.4599L18.76 20.0499C19.58 19.8199 20.11 19.4899 20.11 19.1099C20.11 18.4299 18.43 17.8799 16.34 17.8799C14.25 17.8799 12.57 18.4299 12.57 19.1099L10.37 44.2099L18.55 39.4699L21.64 36.3799Z" fill="#221F20"/>
    <path d="M21.7 37.0098L20.2 38.5198L21.75 37.6198L21.7 37.0098Z" fill="#221F20"/>
    <path d="M0 55.7002V92.7002L41.87 116.94V31.4502L0 55.7002Z" fill="#221F20"/>
    <path d="M83.56 55.5902L41.87 31.4502V116.93L83.73 92.6902L83.56 55.5902Z" fill="#616161"/>
    <path d="M51.1 88.7703V83.9503L67.95 74.1904L51.1 64.4404V59.6104L76.29 74.1904L51.1 88.7703Z" fill="#FFCC01"/>
    <path d="M32.58 64.4404L15.73 74.1904L32.58 83.9503V88.7703L7.39001 74.1904L32.58 59.6104V64.4404Z" fill="#FFCC01"/>
    <path d="M108.36 60.9996V63.8996C108.363 64.2393 108.298 64.5761 108.17 64.8908C108.042 65.2054 107.854 65.4918 107.615 65.7334C107.376 65.9749 107.092 66.167 106.779 66.2984C106.466 66.4299 106.13 66.4983 105.79 66.4996H97.85C97.5104 66.5009 97.1738 66.4352 96.8596 66.3061C96.5454 66.177 96.2598 65.9872 96.0192 65.7475C95.7786 65.5078 95.5876 65.2229 95.4574 64.9092C95.3271 64.5956 95.26 64.2593 95.26 63.9196V62.7296H98.19V63.3296C98.19 63.3986 98.2174 63.4647 98.2662 63.5135C98.3149 63.5622 98.381 63.5896 98.45 63.5896H105.17C105.239 63.5896 105.305 63.5622 105.354 63.5135C105.403 63.4647 105.43 63.3986 105.43 63.3296V61.9996C105.43 61.9307 105.403 61.8645 105.354 61.8158C105.305 61.767 105.239 61.7396 105.17 61.7396H97.3C96.7696 61.7396 96.2609 61.5289 95.8858 61.1538C95.5107 60.7788 95.3 60.27 95.3 59.7396V56.6996C95.2987 56.3586 95.3647 56.0208 95.4943 55.7054C95.6239 55.39 95.8144 55.1033 96.0551 54.8617C96.2957 54.6202 96.5817 54.4285 96.8965 54.2977C97.2114 54.1669 97.549 54.0996 97.89 54.0996H105.83C106.17 54.1009 106.507 54.1692 106.82 54.3006C107.134 54.432 107.419 54.6238 107.658 54.8653C107.898 55.1067 108.088 55.393 108.217 55.7077C108.346 56.0224 108.411 56.3595 108.41 56.6996V57.8996H105.48V57.2996C105.48 57.2307 105.453 57.1645 105.404 57.1158C105.355 57.067 105.289 57.0396 105.22 57.0396H98.45C98.381 57.0396 98.3149 57.067 98.2662 57.1158C98.2174 57.1645 98.19 57.2307 98.19 57.2996V58.6696C98.1886 58.7041 98.1944 58.7386 98.2069 58.7708C98.2195 58.8029 98.2386 58.8322 98.263 58.8566C98.2875 58.881 98.3167 58.9001 98.3489 58.9127C98.381 58.9253 98.4155 58.931 98.45 58.9296H106.32C106.592 58.924 106.862 58.9739 107.114 59.0764C107.366 59.1788 107.595 59.3316 107.786 59.5253C107.977 59.7191 108.126 59.9498 108.225 60.2033C108.324 60.4568 108.37 60.7277 108.36 60.9996Z" fill="#221F20"/>
    <path d="M124.52 57.0703V63.5503C124.52 64.346 124.204 65.109 123.641 65.6716C123.079 66.2342 122.316 66.5503 121.52 66.5503H114C113.204 66.5503 112.441 66.2342 111.879 65.6716C111.316 65.109 111 64.346 111 63.5503V57.0703C111 56.2747 111.316 55.5116 111.879 54.949C112.441 54.3864 113.204 54.0703 114 54.0703H121.52C122.316 54.0703 123.079 54.3864 123.641 54.949C124.204 55.5116 124.52 56.2747 124.52 57.0703ZM121.59 57.6503C121.595 57.5686 121.584 57.4866 121.557 57.4092C121.53 57.3318 121.488 57.2607 121.433 57.2C121.378 57.1394 121.311 57.0904 121.237 57.0561C121.162 57.0218 121.082 57.0028 121 57.0003H114.64C114.478 57.0003 114.323 57.0646 114.209 57.179C114.094 57.2934 114.03 57.4485 114.03 57.6103V63.0003C114.029 63.0813 114.043 63.1617 114.074 63.2368C114.104 63.312 114.148 63.3804 114.205 63.4381C114.262 63.4958 114.33 63.5417 114.404 63.5729C114.479 63.6042 114.559 63.6203 114.64 63.6203H121C121.164 63.6203 121.322 63.555 121.438 63.4387C121.555 63.3224 121.62 63.1647 121.62 63.0003L121.59 57.6503Z" fill="#221F20"/>
    <path d="M127.21 54.0996H138.77V56.8796H130.35V58.9996H137.35V61.7996H130.35V66.4896H127.21V54.0996Z" fill="#221F20"/>
    <path d="M153.39 54.0996V56.9996H148.73V66.4796H145.62V56.9996H141V54.0996H153.39Z" fill="#221F20"/>
    <path d="M169.84 54.0996H172.84L169.3 66.5196H165.51L164 60.2996L162.49 66.5096H158.71L155.14 54.0996H158.14L160.61 62.2996L162.61 54.0996H165.28L167.28 62.2996L169.84 54.0996Z" fill="#221F20"/>
    <path d="M182.61 64.6196H176.45L175.59 66.5196H172.48L177.72 54.0996H181.34L186.57 66.5196H183.47L182.61 64.6196ZM181.38 61.8796L179.53 57.1596L177.67 61.8796H181.38Z" fill="#221F20"/>
    <path d="M201.5 56.6896V60.4896C201.496 61.1281 201.258 61.743 200.83 62.2169C200.402 62.6909 199.815 62.9909 199.18 63.0596L201.5 66.5196H198.05L195.74 63.0696H191.68V66.5196H188.58V54.0996H198.91C199.597 54.0996 200.256 54.3725 200.741 54.8582C201.227 55.3439 201.5 56.0027 201.5 56.6896ZM198.56 57.2896C198.56 57.2559 198.553 57.2226 198.54 57.1916C198.527 57.1606 198.508 57.1326 198.483 57.1092C198.459 57.0859 198.43 57.0676 198.399 57.0557C198.367 57.0437 198.334 57.0383 198.3 57.0396H191.68V60.1396H198.3C198.369 60.1396 198.435 60.1122 198.484 60.0635C198.533 60.0147 198.56 59.9486 198.56 59.8796V57.2896Z" fill="#221F20"/>
    <path d="M204.2 54.0996H215.58V56.8596H207.33V58.8596H214.2V61.8096H207.33V63.8096H215.58V66.5696H204.2V54.0996Z" fill="#221F20"/>
    <path d="M95.25 70.8096H106.81V73.5796H98.39V75.7396H105.39V78.5296H98.39V83.2296H95.25V70.8096Z" fill="#221F20"/>
    <path d="M116.81 81.3196H110.64L109.79 83.2296H106.68L111.91 70.8096H115.54L120.77 83.2296H117.67L116.81 81.3196ZM115.58 78.5896L113.73 73.8596L111.87 78.5896H115.58Z" fill="#221F20"/>
    <path d="M135.72 73.3996V75.1196H132.78V73.9996C132.78 73.9306 132.753 73.8645 132.704 73.8157C132.655 73.767 132.589 73.7396 132.52 73.7396H126C125.966 73.7396 125.932 73.7463 125.9 73.7594C125.869 73.7724 125.84 73.7916 125.816 73.8157C125.792 73.8399 125.773 73.8685 125.76 73.9001C125.747 73.9316 125.74 73.9654 125.74 73.9996V79.9996C125.74 80.0337 125.747 80.0675 125.76 80.0991C125.773 80.1306 125.792 80.1593 125.816 80.1834C125.84 80.2076 125.869 80.2267 125.9 80.2398C125.932 80.2529 125.966 80.2596 126 80.2596H132.55C132.619 80.2596 132.685 80.2322 132.734 80.1834C132.783 80.1347 132.81 80.0685 132.81 79.9996V78.9296H135.75V80.6396C135.75 81.3265 135.477 81.9853 134.991 82.471C134.506 82.9567 133.847 83.2296 133.16 83.2296H125.39C125.05 83.2296 124.714 83.1625 124.4 83.0322C124.087 82.9019 123.802 82.711 123.562 82.4704C123.322 82.2297 123.133 81.9441 123.003 81.63C122.874 81.3158 122.809 80.9792 122.81 80.6396V73.3996C122.809 73.0599 122.874 72.7234 123.003 72.4092C123.133 72.095 123.322 71.8094 123.562 71.5688C123.802 71.3281 124.087 71.1372 124.4 71.0069C124.714 70.8766 125.05 70.8096 125.39 70.8096H133.16C133.842 70.8175 134.493 71.0938 134.972 71.5787C135.451 72.0636 135.72 72.7178 135.72 73.3996Z" fill="#221F20"/>
    <path d="M150.35 70.8096V73.7396H145.69V83.2296H142.59V73.7396H137.93V70.8096H150.35Z" fill="#221F20"/>
    <path d="M166 73.7803V80.2603C166 81.0559 165.684 81.819 165.121 82.3816C164.559 82.9442 163.796 83.2603 163 83.2603H155.48C154.684 83.2603 153.921 82.9442 153.359 82.3816C152.796 81.819 152.48 81.0559 152.48 80.2603V73.7803C152.48 72.9846 152.796 72.2216 153.359 71.659C153.921 71.0963 154.684 70.7803 155.48 70.7803H163C163.796 70.7803 164.559 71.0963 165.121 71.659C165.684 72.2216 166 72.9846 166 73.7803ZM163.06 74.3603C163.061 74.2793 163.047 74.1989 163.016 74.1238C162.986 74.0486 162.942 73.9802 162.885 73.9225C162.828 73.8648 162.76 73.8189 162.686 73.7876C162.611 73.7564 162.531 73.7403 162.45 73.7403H156.09C155.926 73.7403 155.768 73.8056 155.652 73.9219C155.535 74.0381 155.47 74.1958 155.47 74.3603V79.6803C155.47 79.7617 155.486 79.8423 155.517 79.9175C155.548 79.9928 155.594 80.0611 155.652 80.1187C155.709 80.1763 155.778 80.2219 155.853 80.2531C155.928 80.2842 156.009 80.3003 156.09 80.3003H162.45C162.531 80.3003 162.611 80.2842 162.686 80.2529C162.76 80.2216 162.828 80.1758 162.885 80.1181C162.942 80.0604 162.986 79.992 163.016 79.9168C163.047 79.8416 163.061 79.7612 163.06 79.6803V74.3603Z" fill="#221F20"/>
    <path d="M181.59 73.3996V77.1896C181.589 77.8298 181.351 78.4471 180.923 78.9232C180.495 79.3992 179.907 79.7006 179.27 79.7696L181.59 83.2296H178.14L175.83 79.7796H171.77V83.2296H168.67V70.8096H179C179.687 70.8096 180.346 71.0824 180.831 71.5682C181.317 72.0539 181.59 72.7127 181.59 73.3996ZM178.65 73.9996C178.65 73.9306 178.623 73.8645 178.574 73.8157C178.525 73.767 178.459 73.7396 178.39 73.7396H171.77V76.8496H178.39C178.459 76.8496 178.525 76.8222 178.574 76.7734C178.623 76.7247 178.65 76.6585 178.65 76.5896V73.9996Z" fill="#221F20"/>
    <path d="M192.48 70.8096H195.88L191.19 78.5496V83.2296H188.08V78.5496L183.4 70.8096H186.79L189.64 75.6296L192.48 70.8096Z" fill="#221F20"/>
    <path d="M99.71 91.0996V91.9996C99.7079 92.2215 99.618 92.4337 99.46 92.5896C99.618 92.7455 99.7079 92.9576 99.71 93.1796V93.9996C99.71 94.2648 99.6046 94.5191 99.4171 94.7067C99.2296 94.8942 98.9752 94.9996 98.71 94.9996H94.44V89.9996H98.66C98.8043 89.9916 98.9486 90.015 99.083 90.0682C99.2174 90.1213 99.3387 90.203 99.4385 90.3076C99.5383 90.4121 99.6143 90.5371 99.6611 90.6738C99.708 90.8105 99.7247 90.9558 99.71 91.0996ZM98.52 91.2796C98.5201 91.252 98.5099 91.2255 98.4914 91.2051C98.4729 91.1848 98.4474 91.1721 98.42 91.1696H95.7V91.9996H98.42C98.4474 91.9971 98.4729 91.9844 98.4914 91.964C98.5099 91.9437 98.5201 91.9171 98.52 91.8896V91.2796ZM98.52 93.1896C98.5201 93.1621 98.5099 93.1355 98.4914 93.1151C98.4729 93.0948 98.4474 93.0821 98.42 93.0796H95.7V93.9396H98.42C98.4465 93.9396 98.472 93.929 98.4907 93.9103C98.5095 93.8915 98.52 93.8661 98.52 93.8396V93.1896Z" fill="#3F3F3F"/>
    <path d="M104.09 90.0596H105.45L103.57 93.1696V95.0496H102.32V93.1696L100.44 90.0596H101.81L103 91.9996L104.09 90.0596Z" fill="#3F3F3F"/>
    <path d="M114.45 92.8304V94.0004C114.45 94.2656 114.345 94.5199 114.157 94.7075C113.97 94.895 113.715 95.0004 113.45 95.0004H110.27C110.005 95.0004 109.75 94.895 109.563 94.7075C109.375 94.5199 109.27 94.2656 109.27 94.0004V93.5203H110.45V93.7604C110.452 93.7878 110.465 93.8132 110.486 93.8317C110.506 93.8503 110.532 93.8605 110.56 93.8604H113.26C113.274 93.862 113.287 93.8605 113.3 93.856C113.313 93.8516 113.325 93.8442 113.334 93.8346C113.344 93.825 113.351 93.8133 113.356 93.8004C113.36 93.7876 113.362 93.7739 113.36 93.7604V93.2204C113.36 93.1928 113.35 93.1663 113.331 93.1459C113.313 93.1255 113.287 93.1129 113.26 93.1104H110C109.782 93.1104 109.572 93.0243 109.417 92.8708C109.261 92.7173 109.173 92.5087 109.17 92.2904V91.1104C109.17 90.8451 109.275 90.5908 109.463 90.4032C109.65 90.2157 109.905 90.1104 110.17 90.1104H113.36C113.625 90.1104 113.88 90.2157 114.067 90.4032C114.255 90.5908 114.36 90.8451 114.36 91.1104V91.5903H113.18V91.3503C113.18 91.3238 113.169 91.2984 113.151 91.2796C113.132 91.2609 113.107 91.2504 113.08 91.2504H110.38C110.366 91.2489 110.352 91.2505 110.339 91.2549C110.325 91.2593 110.313 91.2664 110.303 91.2759C110.292 91.2853 110.284 91.2968 110.278 91.3096C110.273 91.3225 110.27 91.3363 110.27 91.3503V91.9004C110.27 91.9144 110.273 91.9282 110.278 91.9411C110.284 91.9539 110.292 91.9654 110.303 91.9748C110.313 91.9843 110.325 91.9914 110.339 91.9958C110.352 92.0002 110.366 92.0018 110.38 92.0004H113.54C113.656 91.9892 113.772 92.0023 113.882 92.039C113.992 92.0757 114.094 92.135 114.179 92.2132C114.265 92.2915 114.333 92.3868 114.38 92.4931C114.427 92.5994 114.451 92.7143 114.45 92.8304Z" fill="#3F3F3F"/>
    <path d="M120.94 91.2596V93.8596C120.94 94.0167 120.909 94.1723 120.848 94.3173C120.788 94.4623 120.699 94.5939 120.588 94.7046C120.476 94.8152 120.344 94.9027 120.198 94.9619C120.053 95.0211 119.897 95.0509 119.74 95.0496H116.74C116.424 95.0496 116.122 94.9242 115.899 94.701C115.675 94.4779 115.55 94.1752 115.55 93.8596V91.2596C115.55 90.943 115.675 90.6393 115.898 90.4146C116.121 90.1898 116.423 90.0622 116.74 90.0596H119.74C120.058 90.0596 120.363 90.186 120.589 90.411C120.814 90.6361 120.94 90.9413 120.94 91.2596ZM119.76 91.4896C119.76 91.4233 119.734 91.3597 119.687 91.3128C119.64 91.2659 119.576 91.2396 119.51 91.2396H117C116.934 91.2396 116.87 91.2659 116.823 91.3128C116.776 91.3597 116.75 91.4233 116.75 91.4896V93.6296C116.753 93.6941 116.78 93.7552 116.827 93.7999C116.873 93.8447 116.935 93.8696 117 93.8696H119.55C119.615 93.8696 119.677 93.8447 119.723 93.7999C119.77 93.7552 119.797 93.6941 119.8 93.6296L119.76 91.4896Z" fill="#3F3F3F"/>
    <path d="M123.26 93.8698H126.26V95.0498H122V90.0498H123.24L123.26 93.8698Z" fill="#3F3F3F"/>
    <path d="M132.35 91.2198V93.8998C132.351 94.0512 132.322 94.2013 132.265 94.3415C132.208 94.4816 132.123 94.6089 132.016 94.716C131.909 94.823 131.782 94.9077 131.642 94.965C131.502 95.0223 131.351 95.0511 131.2 95.0498H127.09V90.0498H131.2C131.353 90.0498 131.504 90.0802 131.645 90.1392C131.786 90.1983 131.913 90.2848 132.02 90.3937C132.127 90.5026 132.212 90.6317 132.268 90.7736C132.325 90.9154 132.353 91.0671 132.35 91.2198ZM131.17 91.4898C131.17 91.4252 131.145 91.3631 131.1 91.3165C131.056 91.2699 130.995 91.2424 130.93 91.2398H128.27V93.8698H130.93C130.994 93.8698 131.055 93.8445 131.1 93.7995C131.145 93.7545 131.17 93.6935 131.17 93.6298V91.4898Z" fill="#3F3F3F"/>
    <path d="M133.44 95.0498V90.0498H134.69V95.0498H133.44Z" fill="#3F3F3F"/>
    <path d="M135.77 90.0596H140.34V91.1696H137V91.9996H139.76V93.1796H137V93.9696H140.31V95.0796H135.74L135.77 90.0596Z" fill="#3F3F3F"/>
    <path d="M146.61 91.1005V92.6305C146.611 92.884 146.515 93.1283 146.342 93.3139C146.17 93.4996 145.933 93.6127 145.68 93.6305L146.61 95.0205H145.22L144.3 93.6405H142.67V95.0205H141.42V90.0205H145.57C145.712 90.0143 145.853 90.0384 145.985 90.091C146.116 90.1437 146.235 90.2238 146.334 90.3259C146.432 90.428 146.507 90.5499 146.555 90.6835C146.603 90.817 146.621 90.9591 146.61 91.1005ZM145.43 91.3505C145.431 91.3365 145.43 91.3224 145.425 91.3091C145.421 91.2958 145.414 91.2836 145.404 91.2732C145.395 91.2628 145.384 91.2546 145.371 91.2489C145.358 91.2433 145.344 91.2404 145.33 91.2405H142.67V92.4905H145.33C145.357 92.4905 145.382 92.4799 145.401 92.4612C145.419 92.4424 145.43 92.417 145.43 92.3905V91.3505Z" fill="#3F3F3F"/>
    <path d="M153 92.8304V94.0004C153 94.2656 152.895 94.5199 152.707 94.7075C152.52 94.895 152.265 95.0004 152 95.0004H148.82C148.685 95.0071 148.549 94.9863 148.422 94.9391C148.295 94.8919 148.179 94.8193 148.08 94.7257C147.982 94.6322 147.904 94.5196 147.851 94.3949C147.797 94.2702 147.77 94.136 147.77 94.0004V93.5203H148.95V93.7604C148.952 93.7861 148.964 93.8103 148.982 93.8286C149 93.8468 149.024 93.8581 149.05 93.8604H151.76C151.787 93.8604 151.812 93.8498 151.831 93.8311C151.849 93.8123 151.86 93.7869 151.86 93.7604V93.2204C151.86 93.1912 151.848 93.1632 151.828 93.1426C151.807 93.1219 151.779 93.1104 151.75 93.1104H148.59C148.373 93.1104 148.164 93.024 148.01 92.8702C147.856 92.7164 147.77 92.5078 147.77 92.2904V91.1104C147.77 90.8451 147.875 90.5908 148.063 90.4032C148.25 90.2157 148.505 90.1104 148.77 90.1104H151.96C152.225 90.1104 152.48 90.2157 152.667 90.4032C152.855 90.5908 152.96 90.8451 152.96 91.1104V91.5903H151.78V91.3503C151.78 91.3238 151.769 91.2984 151.751 91.2796C151.732 91.2609 151.707 91.2504 151.68 91.2504H149C148.973 91.2504 148.948 91.2609 148.929 91.2796C148.911 91.2984 148.9 91.3238 148.9 91.3503V91.9004C148.9 91.9269 148.911 91.9523 148.929 91.9711C148.948 91.9898 148.973 92.0004 149 92.0004H152.17C152.39 92.0004 152.601 92.0878 152.757 92.2435C152.913 92.3991 153 92.6102 153 92.8304Z" fill="#3F3F3F"/>
    <path d="M153.83 94.3498C153.828 94.2086 153.868 94.0699 153.946 93.9516C154.023 93.8334 154.134 93.7408 154.264 93.6858C154.394 93.6309 154.537 93.616 154.676 93.643C154.815 93.6701 154.942 93.7379 155.042 93.8378C155.142 93.9377 155.21 94.0652 155.237 94.2038C155.264 94.3425 155.249 94.486 155.194 94.6162C155.139 94.7463 155.046 94.8571 154.928 94.9343C154.81 95.0116 154.671 95.0518 154.53 95.0498C154.344 95.0498 154.166 94.9761 154.035 94.8448C153.904 94.7135 153.83 94.5355 153.83 94.3498Z" fill="#3F3F3F"/>
    <path d="M159.13 90.0596H163.77V91.1796H160.39V91.9996H163.21V93.1296H160.39V95.0096H159.13V90.0596Z" fill="#3F3F3F"/>
    <path d="M170.26 91.2596V93.8596C170.26 94.0167 170.229 94.1723 170.168 94.3173C170.108 94.4623 170.019 94.5939 169.908 94.7046C169.796 94.8152 169.664 94.9027 169.518 94.9619C169.373 95.0211 169.217 95.0509 169.06 95.0496H166.06C165.903 95.0509 165.747 95.0211 165.602 94.9619C165.456 94.9027 165.324 94.8152 165.212 94.7046C165.1 94.5939 165.012 94.4623 164.952 94.3173C164.891 94.1723 164.86 94.0167 164.86 93.8596V91.2596C164.86 90.9413 164.986 90.6361 165.211 90.411C165.436 90.186 165.742 90.0596 166.06 90.0596H169.06C169.378 90.0596 169.683 90.186 169.909 90.411C170.134 90.6361 170.26 90.9413 170.26 91.2596ZM169.08 91.4896C169.08 91.4233 169.054 91.3597 169.007 91.3128C168.96 91.2659 168.896 91.2396 168.83 91.2396H166.28C166.214 91.2396 166.15 91.2659 166.103 91.3128C166.056 91.3597 166.03 91.4233 166.03 91.4896V93.6296C166.033 93.6941 166.06 93.7552 166.107 93.7999C166.153 93.8447 166.215 93.8696 166.28 93.8696H168.83C168.895 93.8696 168.957 93.8447 169.003 93.7999C169.05 93.7552 169.077 93.6941 169.08 93.6296V91.4896Z" fill="#3F3F3F"/>
    <path d="M176.52 91.1005V92.6305C176.521 92.8824 176.426 93.1253 176.256 93.3107C176.085 93.4961 175.851 93.6103 175.6 93.6305L176.52 95.0205H175.14L174.21 93.6405H172.58V95.0205H171.34V90.0205H175.48C175.622 90.0143 175.763 90.0384 175.895 90.091C176.026 90.1437 176.145 90.2238 176.244 90.3259C176.342 90.428 176.417 90.5499 176.465 90.6835C176.513 90.817 176.531 90.9591 176.52 91.1005ZM175.35 91.3505C175.35 91.336 175.347 91.3217 175.342 91.3084C175.336 91.295 175.328 91.2829 175.318 91.2727C175.308 91.2625 175.295 91.2544 175.282 91.2488C175.269 91.2433 175.254 91.2405 175.24 91.2405H172.58V92.4905H175.24C175.267 92.4906 175.294 92.4804 175.314 92.4619C175.335 92.4434 175.347 92.4179 175.35 92.3905V91.3505Z" fill="#3F3F3F"/>
    <path d="M185.88 92.8304V94.0004C185.88 94.2656 185.775 94.5199 185.587 94.7075C185.4 94.895 185.145 95.0004 184.88 95.0004H181.7C181.435 95.0004 181.18 94.895 180.993 94.7075C180.805 94.5199 180.7 94.2656 180.7 94.0004V93.5203H181.88V93.7604C181.882 93.7861 181.894 93.8103 181.912 93.8286C181.93 93.8468 181.954 93.8581 181.98 93.8604H184.69C184.717 93.8604 184.742 93.8498 184.761 93.8311C184.779 93.8123 184.79 93.7869 184.79 93.7604V93.2204C184.79 93.2059 184.787 93.1916 184.782 93.1783C184.776 93.1649 184.768 93.1528 184.758 93.1426C184.748 93.1324 184.735 93.1242 184.722 93.1187C184.709 93.1132 184.694 93.1104 184.68 93.1104H181.52C181.303 93.1104 181.094 93.024 180.94 92.8702C180.786 92.7164 180.7 92.5078 180.7 92.2904V91.1104C180.7 90.8451 180.805 90.5908 180.993 90.4032C181.18 90.2157 181.435 90.1104 181.7 90.1104H184.89C185.155 90.1104 185.41 90.2157 185.597 90.4032C185.785 90.5908 185.89 90.8451 185.89 91.1104V91.5903H184.7V91.3503C184.7 91.3238 184.689 91.2984 184.671 91.2796C184.652 91.2609 184.627 91.2504 184.6 91.2504H181.89C181.863 91.2504 181.838 91.2609 181.819 91.2796C181.801 91.2984 181.79 91.3238 181.79 91.3503V91.9004C181.79 91.9269 181.801 91.9523 181.819 91.9711C181.838 91.9898 181.863 92.0004 181.89 92.0004H185.06C185.278 92.003 185.487 92.0916 185.64 92.247C185.794 92.4023 185.88 92.6119 185.88 92.8304Z" fill="#3F3F3F"/>
    <path d="M192.36 91.2596V93.8596C192.36 94.1752 192.235 94.4779 192.011 94.701C191.788 94.9242 191.486 95.0496 191.17 95.0496H188.17C187.858 95.0443 187.56 94.9166 187.341 94.694C187.123 94.4714 187 94.1717 187 93.8596V91.2596C186.999 91.1025 187.028 90.9466 187.088 90.8011C187.147 90.6556 187.234 90.5232 187.345 90.4116C187.456 90.3001 187.587 90.2115 187.732 90.1511C187.877 90.0907 188.033 90.0596 188.19 90.0596H191.19C191.504 90.0648 191.803 90.1939 192.022 90.4187C192.241 90.6434 192.363 90.9457 192.36 91.2596ZM191.19 91.4896C191.19 91.4233 191.164 91.3597 191.117 91.3128C191.07 91.2659 191.006 91.2396 190.94 91.2396H188.39C188.324 91.2396 188.26 91.2659 188.213 91.3128C188.166 91.3597 188.14 91.4233 188.14 91.4896V93.6296C188.143 93.6941 188.17 93.7552 188.217 93.7999C188.263 93.8447 188.325 93.8696 188.39 93.8696H190.94C191.005 93.8696 191.067 93.8447 191.113 93.7999C191.16 93.7552 191.187 93.6941 191.19 93.6296V91.4896Z" fill="#3F3F3F"/>
    <path d="M194.69 93.8698H197.69V95.0498H193.48V90.0498H194.73L194.69 93.8698Z" fill="#3F3F3F"/>
    <path d="M203.78 91.2198V93.8998C203.78 94.0517 203.75 94.202 203.692 94.3422C203.633 94.4824 203.548 94.6096 203.44 94.7165C203.332 94.8234 203.204 94.9079 203.063 94.9651C202.922 95.0224 202.772 95.0511 202.62 95.0498H198.52V90.0498H202.62C202.773 90.0498 202.925 90.0801 203.066 90.139C203.208 90.198 203.336 90.2843 203.444 90.3931C203.552 90.5019 203.637 90.6309 203.695 90.7728C203.752 90.9147 203.781 91.0666 203.78 91.2198ZM202.6 91.4898C202.6 91.4235 202.574 91.3599 202.527 91.313C202.48 91.2661 202.416 91.2398 202.35 91.2398H199.7V93.8698H202.35C202.415 93.8699 202.477 93.8449 202.523 93.8001C202.57 93.7554 202.597 93.6944 202.6 93.6298V91.4898Z" fill="#3F3F3F"/>
    <path d="M204.87 95.0498V90.0498H206.12V95.0498H204.87Z" fill="#3F3F3F"/>
    <path d="M207.2 90.0596H211.77V91.1696H208.46V91.9996H211.22V93.1796H208.46V93.9696H211.77V95.0796H207.2V90.0596Z" fill="#3F3F3F"/>
    <path d="M218 91.0995V92.6295C218.001 92.8831 217.905 93.1274 217.732 93.313C217.56 93.4987 217.323 93.6118 217.07 93.6295L218 95.0195H216.61L215.69 93.6395H214.1V95.0195H212.85V90.0195H217C217.138 90.0191 217.275 90.0474 217.402 90.1025C217.529 90.1577 217.643 90.2386 217.737 90.3401C217.831 90.4416 217.903 90.5615 217.948 90.6922C217.993 90.823 218.011 90.9616 218 91.0995ZM216.82 91.3495C216.82 91.322 216.81 91.2955 216.791 91.2751C216.773 91.2547 216.747 91.242 216.72 91.2395H214.1V92.4895H216.76C216.786 92.4873 216.81 92.476 216.828 92.4577C216.846 92.4395 216.858 92.4153 216.86 92.3895L216.82 91.3495Z" fill="#3F3F3F"/>
    <path d="M224.38 92.8304V94.0004C224.38 94.2656 224.275 94.5199 224.087 94.7075C223.9 94.895 223.645 95.0004 223.38 95.0004H220.19C219.925 95.0004 219.67 94.895 219.483 94.7075C219.295 94.5199 219.19 94.2656 219.19 94.0004V93.5203H220.37V93.7604C220.37 93.7869 220.381 93.8123 220.399 93.8311C220.418 93.8498 220.443 93.8604 220.47 93.8604H223.17C223.184 93.8618 223.198 93.8602 223.211 93.8558C223.225 93.8514 223.237 93.8443 223.247 93.8348C223.258 93.8254 223.266 93.8139 223.272 93.8011C223.277 93.7882 223.28 93.7744 223.28 93.7604V93.2204C223.281 93.2064 223.28 93.1923 223.275 93.179C223.271 93.1657 223.264 93.1535 223.255 93.1431C223.245 93.1327 223.234 93.1244 223.221 93.1188C223.208 93.1132 223.194 93.1103 223.18 93.1104H220.02C219.803 93.1104 219.594 93.024 219.44 92.8702C219.286 92.7164 219.2 92.5078 219.2 92.2904V91.1104C219.2 90.8451 219.305 90.5908 219.493 90.4032C219.68 90.2157 219.935 90.1104 220.2 90.1104H223.38C223.645 90.1104 223.9 90.2157 224.087 90.4032C224.275 90.5908 224.38 90.8451 224.38 91.1104V91.5903H223.21V91.3503C223.21 91.3363 223.207 91.3225 223.202 91.3096C223.196 91.2968 223.188 91.2853 223.177 91.2759C223.167 91.2664 223.155 91.2593 223.141 91.2549C223.128 91.2505 223.114 91.2489 223.1 91.2504H220.4C220.386 91.2487 220.373 91.2502 220.36 91.2547C220.347 91.2591 220.335 91.2665 220.326 91.2761C220.316 91.2857 220.309 91.2974 220.304 91.3103C220.3 91.3231 220.298 91.3368 220.3 91.3503V91.9004C220.298 91.9139 220.3 91.9276 220.304 91.9404C220.309 91.9533 220.316 91.965 220.326 91.9746C220.335 91.9842 220.347 91.9916 220.36 91.996C220.373 92.0005 220.386 92.002 220.4 92.0004H223.56C223.669 92.0003 223.776 92.0219 223.876 92.0637C223.976 92.1055 224.067 92.1668 224.143 92.244C224.22 92.3213 224.28 92.4128 224.32 92.5135C224.361 92.6141 224.381 92.7218 224.38 92.8304Z" fill="#3F3F3F"/>
    <path d="M225.26 94.3504C225.26 94.1647 225.334 93.9867 225.465 93.8554C225.596 93.7241 225.774 93.6504 225.96 93.6504C226.146 93.6504 226.324 93.7241 226.455 93.8554C226.586 93.9867 226.66 94.1647 226.66 94.3504C226.66 94.536 226.586 94.7141 226.455 94.8454C226.324 94.9766 226.146 95.0504 225.96 95.0504C225.774 95.0504 225.596 94.9766 225.465 94.8454C225.334 94.7141 225.26 94.536 225.26 94.3504Z" fill="#3F3F3F"/>
  </g>
  <defs>
    <clipPath id="clip0_1_2247">
      <rect width="226.67" height="116.93" fill="white"/>
    </clipPath>
  </defs>
</svg>
