<svg width="137" height="171" viewBox="0 0 137 171" fill="none" xmlns="http://www.w3.org/2000/svg">
  <path d="M134.462 48.7134H84.0043L68.4219 0.780029L52.8395 48.7134H2.38226L43.1933 78.3158L27.6109 126.249L68.4219 96.6467L109.233 126.249L93.6505 78.3158L134.462 48.7134ZM68.4219 81.904L50.262 95.0867L57.2135 73.7526L39.0536 60.57H61.5094L68.4609 39.2359L75.4125 60.57H97.8683L79.7084 73.7526L86.6599 95.0867L68.4219 81.904Z" fill="#FFCC01"/>
  <path d="M11.7161 148.09H16.754V165.407C16.754 168.254 14.7623 169.97 11.7551 169.97H5.77993C2.7728 169.97 0.781067 168.254 0.781067 165.407V148.09H5.85803V164.51C5.85803 164.939 6.17046 165.251 6.60005 165.251H11.0131C11.4036 165.251 11.7551 164.939 11.7551 164.51V148.09H11.7161ZM18.4723 164.861H23.4712V169.931H18.4723V164.861ZM25.3067 152.107C25.3067 149.806 26.986 148.09 29.6417 148.09H36.6323C39.2879 148.09 40.9672 149.806 40.9672 152.107V155.306H36.0465V153.317C36.0465 152.926 35.734 152.575 35.3044 152.575H30.9304C30.5008 152.575 30.1884 152.887 30.1884 153.317V154.916C30.1884 155.228 30.3446 155.54 30.8133 155.657L37.7648 157.763C40.1471 158.504 40.8891 159.479 40.8891 162.209V165.875C40.8891 168.137 39.2098 169.892 36.5542 169.892H29.6026C26.986 169.892 25.2677 168.137 25.2677 165.875V162.326H30.1494V164.627C30.1494 165.017 30.4618 165.368 30.8914 165.368H35.2654C35.695 165.368 36.0074 165.056 36.0074 164.627V162.755C36.0074 162.443 35.8121 162.131 35.3825 162.014L28.4701 159.947C26.0878 159.206 25.3458 158.231 25.3458 155.462V152.107H25.3067ZM42.7246 164.861H47.7235V169.931H42.7246V164.861ZM67.3284 166.499H59.8301L58.8928 169.97H53.6987L60.1425 148.09H67.3284L73.5379 169.97H68.2266L67.3284 166.499ZM66.1177 162.014L63.6183 152.77L61.0798 162.014H66.1177ZM89.7842 161.039L88.6907 161.897L92.557 169.97H86.9723L83.6137 162.56H80.7628V169.97H75.7249V148.09H86.8552C89.667 148.09 91.5807 149.767 91.5807 152.263V156.593C91.5416 158.777 91.3073 159.752 89.7842 161.039ZM86.4646 157.373V153.473C86.4646 153.082 86.1522 152.731 85.7226 152.731H80.7238V158.114H85.7226C86.1522 158.114 86.4646 157.802 86.4646 157.373ZM108.53 148.09H114.857V169.97H109.975V156.827L105.445 169.97H104.078L99.5476 156.827V169.97H94.8612V148.09H101.305L104.937 159.674L108.53 148.09ZM136.219 148.09L128.838 161.546V169.931H123.761V161.507L116.614 148.09H122.472L126.456 156.164L130.439 148.09H136.219Z" fill="#221F20"/>
</svg>
